:FULLY-SPECIFIED
:FORCE-ALL-JOINTS-BE-3DOF
:DEGREES
1020
root 0.243355 13.5425 -35.358 12.3076 -28.1523 -17.6585
lfemur -70.1153 36.0886 -4.1453
ltibia 82.4493 -0 0
lfoot -12.9998 -8.60334 -0.00167027
ltoes -5.90606 0 0
rfemur 10.3776 -8.72374 8.64379
rtibia 36.2057 -0 0
rfoot -22.6555 -26.1869 -1.41973e-05
rtoes -31.4519 0 0
lowerback 10.1971 -0.850871 5.37483
upperback -1.86405 0.0745166 8.15059
thorax -7.7678 -0.0375157 5.69751
lowerneck -4.83212 8.32382 3.41192
upperneck 7.9122 10.9645 -1.02661
head 3.69063 5.48877 -0.387357
lclavicle -5.58629e-14 1.02727e-14 1.26872e-30
lhumerus 83.1495 -9.15793 28.2944
lradius 94.1503 -0 0
lwrist 9.31978 0 0
lhand -35.7225 30.8197 0.00902959
lfingers 7.12502 -0 0
lthumb -8.84193 60.6134 0.0088496
rclavicle -5.58629e-14 1.02727e-14 1.26872e-30
rhumerus -77.582 23.0126 -95.1054
rradius 111.924 -0 0
rwrist -63.2528 0 0
rhand -10.2 -25.1086 -0.000264774
rfingers 7.12502 -0 0
rthumb 15.7911 -54.4845 -0.000245078
1021
root 0.24291 13.5398 -35.3525 12.3071 -28.1566 -17.6531
lfemur -70.1334 36.112 -4.16378
ltibia 82.5026 -0 0
lfoot -13.0522 -8.58404 -0.00120209
ltoes -5.9607 0 0
rfemur 10.4032 -8.71672 8.62333
rtibia 36.1873 -0 0
rfoot -22.6533 -26.1907 -1.02179e-05
rtoes -31.4423 0 0
lowerback 10.1834 -0.845003 5.35503
upperback -1.86999 0.0786028 8.14293
thorax -7.7664 -0.0347098 5.69925
lowerneck -4.84253 8.32387 3.41098
upperneck 7.91772 10.9637 -1.01867
head 3.69392 5.48858 -0.384071
lclavicle -5.6364e-14 1.1806e-14 9.13104e-31
lhumerus 83.1737 -8.40051 28.3783
lradius 94.1233 -0 0
lwrist 9.12704 0 0
lhand -35.7716 30.7084 0.00649856
lfingers 7.12502 -0 0
lthumb -8.88932 60.5005 0.00636901
rclavicle -5.6364e-14 1.1806e-14 9.13104e-31
rhumerus -77.589 23.0244 -95.1123
rradius 111.914 -0 0
rwrist -63.2601 0 0
rhand -10.2089 -25.0908 -0.00019056
rfingers 7.12502 -0 0
rthumb 15.7825 -54.4673 -0.000176384
1022
root 0.242535 13.5375 -35.3478 12.3067 -28.1601 -17.6485
lfemur -70.1487 36.1316 -4.17934
ltibia 82.5474 -0 0
lfoot -13.0963 -8.5678 -0.000794613
ltoes -6.00667 0 0
rfemur 10.4248 -8.71081 8.60613
rtibia 36.1719 -0 0
rfoot -22.6514 -26.194 -6.75438e-06
rtoes -31.4342 0 0
lowerback 10.1719 -0.840072 5.33838
upperback -1.87499 0.0820394 8.13649
thorax -7.76522 -0.0323495 5.70072
lowerneck -4.85128 8.32391 3.41019
upperneck 7.92237 10.963 -1.01199
head 3.69669 5.48842 -0.381307
lclavicle -5.67856e-14 1.30958e-14 6.03593e-31
lhumerus 83.1948 -7.76336 28.449
lradius 94.1007 -0 0
lwrist 8.9649 0 0
lhand -35.8129 30.6148 0.00429571
lfingers 7.12502 -0 0
lthumb -8.92918 60.4054 0.00421007
rclavicle -5.67856e-14 1.30958e-14 6.03593e-31
rhumerus -77.5948 23.0344 -95.1181
rradius 111.905 -0 0
rwrist -63.2663 0 0
rhand -10.2165 -25.0758 -0.000125966
rfingers 7.12502 -0 0
rthumb 15.7752 -54.4529 -0.000116596
1023
root 0.242236 13.5357 -35.344 12.3064 -28.163 -17.6449
lfemur -70.1609 36.1473 -4.19178
ltibia 82.5833 -0 0
lfoot -13.1315 -8.55483 -0.000460072
ltoes -6.0434 0 0
rfemur 10.442 -8.70609 8.59239
rtibia 36.1596 -0 0
rfoot -22.6499 -26.1965 -3.91076e-06
rtoes -31.4277 0 0
lowerback 10.1626 -0.836134 5.32508
upperback -1.87898 0.0847847 8.13135
thorax -7.76427 -0.0304638 5.70189
lowerneck -4.85827 8.32395 3.40956
upperneck 7.92609 10.9624 -1.00665
head 3.69891 5.4883 -0.379099
lclavicle -5.71224e-14 1.41264e-14 3.49478e-31
lhumerus 83.2123 -7.25441 28.5056
lradius 94.0826 -0 0
lwrist 8.83536 0 0
lhand -35.8459 30.5401 0.00248717
lfingers 7.12502 -0 0
lthumb -8.96103 60.3295 0.00243759
rclavicle -5.71224e-14 1.41264e-14 3.49478e-31
rhumerus -77.5995 23.0423 -95.1227
rradius 111.899 -0 0
rwrist -63.2712 0 0
rhand -10.2225 -25.0638 -7.29339e-05
rfingers 7.12502 -0 0
rthumb 15.7694 -54.4413 -6.75084e-05
1024
root 0.242016 13.5344 -35.3413 12.3062 -28.1651 -17.6422
lfemur -70.1698 36.1588 -4.20091
ltibia 82.6095 -0 0
lfoot -13.1573 -8.54532 -0.000209737
ltoes -6.07033 0 0
rfemur 10.4547 -8.70262 8.58232
rtibia 36.1506 -0 0
rfoot -22.6488 -26.1984 -1.78286e-06
rtoes -31.4229 0 0
lowerback 10.1559 -0.833248 5.31533
upperback -1.88191 0.0867973 8.12757
thorax -7.76358 -0.0290812 5.70275
lowerneck -4.8634 8.32397 3.4091
upperneck 7.92881 10.962 -1.00274
head 3.70053 5.48821 -0.37748
lclavicle -5.73693e-14 1.48819e-14 1.59322e-31
lhumerus 83.2254 -6.88122 28.5472
lradius 94.0693 -0 0
lwrist 8.74038 0 0
lhand -35.87 30.4852 0.00113386
lfingers 7.12502 -0 0
lthumb -8.98437 60.2738 0.00111125
rclavicle -5.73693e-14 1.48819e-14 1.59322e-31
rhumerus -77.603 23.0481 -95.1261
rradius 111.894 -0 0
rwrist -63.2748 0 0
rhand -10.2269 -25.055 -3.32494e-05
rfingers 7.12502 -0 0
rthumb 15.7651 -54.4329 -3.0776e-05
